{
	"asset":{
		"generator":"Khronos glTF Blender I/O v3.5.30",
		"version":"2.0"
	},
	"scene":0,
	"scenes":[
		{
			"name":"Scene",
			"nodes":[
				0,
				1
			]
		}
	],
	"nodes":[
		{
			"mesh":0,
			"name":"Esfera geod\u00e9sica"
		},
		{
			"mesh":1,
			"name":"Esfera geod\u00e9sica.001",
			"scale":[
				0.9390383362770081,
				0.9390383362770081,
				0.9390383362770081
			],
			"translation":[
				-0.13913655281066895,
				-0.07913727313280106,
				0.14728480577468872
			]
		}
	],
	"materials":[
		{
			"doubleSided":true,
			"name":"Material.001",
			"pbrMetallicRoughness":{
				"baseColorFactor":[
					0.09462588280439377,
					0.09462588280439377,
					0.09462588280439377,
					1
				],
				"metallicFactor":0,
				"roughnessFactor":1
			}
		},
		{
			"doubleSided":true,
			"name":"Material.004",
			"pbrMetallicRoughness":{
				"baseColorFactor":[
					0.06997818499803543,
					0.06997818499803543,
					0.06997818499803543,
					1
				],
				"metallicFactor":1,
				"roughnessFactor":1
			}
		}
	],
	"meshes":[
		{
			"name":"Esfera geod\u00e9sica.001",
			"primitives":[
				{
					"attributes":{
						"POSITION":0,
						"TEXCOORD_0":1,
						"NORMAL":2
					},
					"indices":3,
					"material":0
				}
			]
		},
		{
			"name":"Esfera geod\u00e9sica.006",
			"primitives":[
				{
					"attributes":{
						"POSITION":4,
						"TEXCOORD_0":5,
						"NORMAL":6
					},
					"indices":7,
					"material":1
				}
			]
		}
	],
	"accessors":[
		{
			"bufferView":0,
			"componentType":5126,
			"count":1376,
			"max":[
				0.8832797408103943,
				0.9679229259490967,
				1.1422628164291382
			],
			"min":[
				-1.2146129608154297,
				-1.0818288326263428,
				-0.8577371835708618
			],
			"type":"VEC3"
		},
		{
			"bufferView":1,
			"componentType":5126,
			"count":1376,
			"type":"VEC2"
		},
		{
			"bufferView":2,
			"componentType":5126,
			"count":1376,
			"type":"VEC3"
		},
		{
			"bufferView":3,
			"componentType":5123,
			"count":1584,
			"type":"SCALAR"
		},
		{
			"bufferView":4,
			"componentType":5126,
			"count":960,
			"max":[
				1,
				1,
				0.9999999403953552
			],
			"min":[
				-0.9999999403953552,
				-1,
				-0.9999999403953552
			],
			"type":"VEC3"
		},
		{
			"bufferView":5,
			"componentType":5126,
			"count":960,
			"type":"VEC2"
		},
		{
			"bufferView":6,
			"componentType":5126,
			"count":960,
			"type":"VEC3"
		},
		{
			"bufferView":7,
			"componentType":5123,
			"count":960,
			"type":"SCALAR"
		}
	],
	"bufferViews":[
		{
			"buffer":0,
			"byteLength":16512,
			"byteOffset":0,
			"target":34962
		},
		{
			"buffer":0,
			"byteLength":11008,
			"byteOffset":16512,
			"target":34962
		},
		{
			"buffer":0,
			"byteLength":16512,
			"byteOffset":27520,
			"target":34962
		},
		{
			"buffer":0,
			"byteLength":3168,
			"byteOffset":44032,
			"target":34963
		},
		{
			"buffer":0,
			"byteLength":11520,
			"byteOffset":47200,
			"target":34962
		},
		{
			"buffer":0,
			"byteLength":7680,
			"byteOffset":58720,
			"target":34962
		},
		{
			"buffer":0,
			"byteLength":11520,
			"byteOffset":66400,
			"target":34962
		},
		{
			"buffer":0,
			"byteLength":1920,
			"byteOffset":77920,
			"target":34963
		}
	],
	"buffers":[
		{
			"byteLength":79840,
			"uri":"data:application/octet-stream;base64,"
		}
	]
}
